# xmcd
#
# Track frame offsets: 
#        150
#        29444
#        68176
#        106322
#        142376
#        178542
#        219614
#        249892
#
# Disc length: 3819 seconds
#
# Revision: 0
# Processed by: cddbd v1.5.2PL0 Copyright (c) Steve Scherf et al.
# Submitted via: ExactAudioCopy v0.99pb5
#
DISCID=750ee908
DTITLE=Various Artist - Tabernanthe
DYEAR=1998
DGENRE=Psychedelic
TTITLE0=Oryx - Once Upon A Time
TTITLE1=Twin Freaks - Total Meltdown
TTITLE2=Shazbatt - Dansk Honning
TTITLE3=Iboga - Von Pom
TTITLE4=Oryx - Diabolic Astroids
TTITLE5=Weirdo Beardo - Flunk Funk
TTITLE6=Lurifax - Thief
TTITLE7=Shazbatt - Water-Kick
EXTD=
EXTT0=
EXTT1=
EXTT2=
EXTT3=
EXTT4=
EXTT5=
EXTT6=
EXTT7=
PLAYORDER=
